<?xml version="1.0" encoding="UTF-8"?>
<svg width="1190px" height="393px" viewBox="0 0 1190 393" version="1.1" xmlns="http://www.w3.org/2000/svg" xmlns:xlink="http://www.w3.org/1999/xlink">
    <!-- Generator: Sketch 49.2 (51160) - http://www.bohemiancoding.com/sketch -->
    <title>Artboard</title>
    <desc>Created with Sketch.</desc>
    <defs>
        <linearGradient x1="0%" y1="100%" x2="74.681405%" y2="31.5700541%" id="linearGradient-1">
            <stop stop-color="#0091D8" offset="0%"></stop>
            <stop stop-color="#7C66E5" offset="100%"></stop>
        </linearGradient>
        <linearGradient x1="100%" y1="50%" x2="0%" y2="50%" id="linearGradient-2">
            <stop stop-color="#F68927" offset="0%"></stop>
            <stop stop-color="#C84FBB" offset="100%"></stop>
        </linearGradient>
    </defs>
    <g id="Artboard" stroke="none" stroke-width="1" fill="none" fill-rule="evenodd">
        <g id="Rectangle"></g>
        <path d="M273.732737,209.475141 C273.732737,162.899268 235.873487,125.007006 189.338958,125.007006 C148.418972,125.007006 114.20791,154.30316 106.547252,193.042061 C104.315546,190.109145 103.499554,186.385623 104.30941,182.774936 L122.002011,103.82492 C125.847294,86.6680137 121.755066,68.9553809 110.775991,55.2280137 C106.409208,49.7682305 101.186555,45.238752 95.3772165,41.7577852 C108.841845,48.0181523 123.513589,51.2895703 138.547314,51.2895703 L171.436991,51.2895703 L171.436991,28.2530156 L138.547314,28.2530156 C122.702199,28.2530156 107.370913,23.585373 94.2099804,14.7536191 L72.2249882,0 L59.4076312,19.1341875 L81.3933902,33.8878066 C83.7309301,35.4567363 86.1259882,36.9120645 88.5647602,38.2760508 C81.4976899,35.2433496 73.7994532,33.6283652 65.8550386,33.6283652 L62.7475217,33.6283652 C53.1580863,33.6283652 45.1891306,40.7077383 43.7864533,49.9202109 L23.5431124,72.022623 L51.6672144,72.022623 L19.9010596,103.816477 L36.1764112,120.10602 L77.1048328,79.1411426 C77.7950513,80.1482051 78.3940075,81.2496797 78.8863634,82.4401934 C81.5866514,88.9630723 80.2200188,95.8382695 75.2312731,100.82983 L21.3443831,154.764475 C9.60836835,166.509955 2.17394849,182.074904 0.409289926,198.593186 C-1.35536864,215.110699 2.62412431,231.897633 11.6138365,245.860646 L91.5104592,369.963445 L73.488088,369.963445 L73.488088,393 L165.554796,393 L165.554796,369.963445 L142.668686,369.963445 L133.493381,326.344283 C131.660468,317.629969 133.824686,308.666191 139.430027,301.751848 C145.036902,294.836736 153.354034,290.87066 162.250951,290.87066 C178.455746,290.87066 191.639686,304.066096 191.639686,320.284254 L191.639686,345.390967 L209.768658,345.390967 C209.768658,345.390967 233.174733,313.207951 233.683194,312.431162 L247.827304,317.151 L269.625938,276.559934 C277.893221,261.165387 279.129479,243.430494 273.732737,227.523205 L273.732737,209.475141 Z" id="Mask" fill="url(#linearGradient-1)"></path>
        <path d="M80.6774296,353.136585 L32.1126781,277.701337 L184.679857,125.134158 C186.222363,125.049759 187.775765,125.007006 189.338958,125.007006 C221.603766,125.007006 249.698047,143.223217 263.894201,169.919814 L80.6774296,353.136585 Z" id="Combined-Shape" fill="url(#linearGradient-2)"></path>
        <path d="M479.88,246.88 L449.64,280 L449.64,337.6 L405,337.6 L405,136 L449.64,136 L449.64,220.96 L528.84,136 L583.56,136 L511.56,213.76 L587.88,337.6 L536.04,337.6 L479.88,246.88 Z M603.28,199.36 L643.6,199.36 L643.6,278.56 C643.6,287.2 646.048,294.160001 650.944,299.44 C655.84,304.719999 661.551999,307.36 668.08,307.36 C672.688,307.36 676.864,306.112001 680.608,303.616 C684.352,301.119999 687.568001,298.336001 690.256,295.264 C693.328001,291.808 696.016,287.680001 698.32,282.88 L698.32,199.36 L738.64,199.36 L738.64,337.6 L698.32,337.6 L698.32,323.2 L695.44,323.2 C693.328001,327.039999 690.544,330.4 687.088,333.28 C684.208,335.967999 680.512001,338.32 676,340.336 C671.487999,342.352 665.968001,343.36 659.44,343.36 C651.952,343.36 644.800001,341.824001 637.984,338.752 C631.167999,335.679999 625.168,331.312001 619.984,325.648 C614.8,319.983999 610.719999,313.168001 607.744,305.2 C604.768001,297.231999 603.28,288.352 603.28,278.56 L603.28,199.36 Z M811.2,337.6 L770.88,337.6 L770.88,136 L811.2,136 L811.2,248.32 L857.28,199.36 L906.24,199.36 L857.28,251.2 L910.56,337.6 L865.92,337.6 L829.92,280 L811.2,300.16 L811.2,337.6 Z M1000.52,307.36 C1005.128,307.36 1009.64,306.352 1014.056,304.336 C1018.472,302.32 1022.312,299.535999 1025.576,295.984 C1028.84,292.432001 1031.48,288.303999 1033.496,283.6 C1035.512,278.896001 1036.52,273.856001 1036.52,268.48 C1036.52,263.103999 1035.512,258.063999 1033.496,253.36 C1031.48,248.656001 1028.84,244.527999 1025.576,240.976 C1022.312,237.424001 1018.472,234.64 1014.056,232.624 C1009.64,230.608 1005.128,229.6 1000.52,229.6 C995.912,229.6 991.399999,230.608 986.984,232.624 C982.568001,234.64 978.727999,237.424001 975.464,240.976 C972.200001,244.527999 969.56,248.656001 967.544,253.36 C965.528,258.063999 964.52,263.103999 964.52,268.48 C964.52,273.856001 965.528,278.896001 967.544,283.6 C969.56,288.303999 972.200001,292.432001 975.464,295.984 C978.727999,299.535999 982.568001,302.32 986.984,304.336 C991.399999,306.352 995.912,307.36 1000.52,307.36 Z M1000.52,343.36 C990.152,343.36 980.311999,341.344 971,337.312 C961.688001,333.28 953.576,327.856001 946.664,321.04 C939.752,314.223999 934.28,306.303999 930.248,297.28 C926.216,288.256001 924.2,278.655999 924.2,268.48 C924.2,258.495999 926.216,248.944001 930.248,239.824 C934.28,230.703999 939.752,222.736001 946.664,215.92 C953.576,209.103999 961.688001,203.68 971,199.648 C980.311999,195.616 990.152,193.6 1000.52,193.6 C1010.888,193.6 1020.728,195.616 1030.04,199.648 C1039.352,203.68 1047.464,209.103999 1054.376,215.92 C1061.288,222.736001 1066.76,230.703999 1070.792,239.824 C1074.824,248.944001 1076.84,258.495999 1076.84,268.48 C1076.84,278.655999 1074.824,288.256001 1070.792,297.28 C1066.76,306.303999 1061.288,314.223999 1054.376,321.04 C1047.464,327.856001 1039.352,333.28 1030.04,337.312 C1020.728,341.344 1010.888,343.36 1000.52,343.36 Z M1093.24,199.36 L1109.08,199.36 L1109.08,164.8 L1149.4,164.8 L1149.4,199.36 L1178.2,199.36 L1178.2,235.36 L1149.4,235.36 L1149.4,287.2 C1149.4,293.728001 1151.08,298.72 1154.44,302.176 C1157.8,305.632 1162.36,307.36 1168.12,307.36 C1170.232,307.36 1172.248,307.167999 1174.168,306.784 C1176.088,306.400001 1177.816,305.92 1179.352,305.344 C1181.08,304.575999 1182.616,303.808001 1183.96,303.04 L1189.72,337.6 C1187.224,338.752 1184.44,339.711999 1181.368,340.48 C1178.68,341.248001 1175.56,341.92 1172.008,342.496 C1168.456,343.072 1164.76,343.36 1160.92,343.36 C1153.624,343.36 1146.856,341.968001 1140.616,339.184 C1134.376,336.399999 1128.904,332.56 1124.2,327.664 C1119.496,322.768 1115.8,316.864 1113.112,309.952 C1110.424,303.04 1109.08,295.456001 1109.08,287.2 L1109.08,235.36 L1093.24,235.36 L1093.24,199.36 Z" id="Kukot-Copy-5" fill="#000000"></path>
    </g>
</svg>