<?xml version="1.0" encoding="UTF-8"?>
<svg width="277px" height="393px" viewBox="0 0 277 393" version="1.1" xmlns="http://www.w3.org/2000/svg" xmlns:xlink="http://www.w3.org/1999/xlink">
    <!-- Generator: Sketch 49.2 (51160) - http://www.bohemiancoding.com/sketch -->
    <title>Group</title>
    <desc>Created with Sketch.</desc>
    <defs>
        <linearGradient x1="0%" y1="100%" x2="74.681405%" y2="31.5700541%" id="linearGradient-1">
            <stop stop-color="#0091D8" offset="0%"></stop>
            <stop stop-color="#7C66E5" offset="100%"></stop>
        </linearGradient>
        <linearGradient x1="100%" y1="50%" x2="0%" y2="50%" id="linearGradient-2">
            <stop stop-color="#F68927" offset="0%"></stop>
            <stop stop-color="#C84FBB" offset="100%"></stop>
        </linearGradient>
    </defs>
    <g id="Page-1" stroke="none" stroke-width="1" fill="none" fill-rule="evenodd">
        <g id="Artboard">
            <g id="Group">
                <path d="M273.732737,209.475141 C273.732737,162.899268 235.873487,125.007006 189.338958,125.007006 C148.418972,125.007006 114.20791,154.30316 106.547252,193.042061 C104.315546,190.109145 103.499554,186.385623 104.30941,182.774936 L122.002011,103.82492 C125.847294,86.6680137 121.755066,68.9553809 110.775991,55.2280137 C106.409208,49.7682305 101.186555,45.238752 95.3772165,41.7577852 C108.841845,48.0181523 123.513589,51.2895703 138.547314,51.2895703 L171.436991,51.2895703 L171.436991,28.2530156 L138.547314,28.2530156 C122.702199,28.2530156 107.370913,23.585373 94.2099804,14.7536191 L72.2249882,0 L59.4076312,19.1341875 L81.3933902,33.8878066 C83.7309301,35.4567363 86.1259882,36.9120645 88.5647602,38.2760508 C81.4976899,35.2433496 73.7994532,33.6283652 65.8550386,33.6283652 L62.7475217,33.6283652 C53.1580863,33.6283652 45.1891306,40.7077383 43.7864533,49.9202109 L23.5431124,72.022623 L51.6672144,72.022623 L19.9010596,103.816477 L36.1764112,120.10602 L77.1048328,79.1411426 C77.7950513,80.1482051 78.3940075,81.2496797 78.8863634,82.4401934 C81.5866514,88.9630723 80.2200188,95.8382695 75.2312731,100.82983 L21.3443831,154.764475 C9.60836835,166.509955 2.17394849,182.074904 0.409289926,198.593186 C-1.35536864,215.110699 2.62412431,231.897633 11.6138365,245.860646 L91.5104592,369.963445 L73.488088,369.963445 L73.488088,393 L165.554796,393 L165.554796,369.963445 L142.668686,369.963445 L133.493381,326.344283 C131.660468,317.629969 133.824686,308.666191 139.430027,301.751848 C145.036902,294.836736 153.354034,290.87066 162.250951,290.87066 C178.455746,290.87066 191.639686,304.066096 191.639686,320.284254 L191.639686,345.390967 L209.768658,345.390967 C209.768658,345.390967 233.174733,313.207951 233.683194,312.431162 L247.827304,317.151 L269.625938,276.559934 C277.893221,261.165387 279.129479,243.430494 273.732737,227.523205 L273.732737,209.475141 Z" id="Mask" fill="url(#linearGradient-1)"></path>
                <path d="M80.6774296,353.136585 L32.1126781,277.701337 L184.679857,125.134158 C186.222363,125.049759 187.775765,125.007006 189.338958,125.007006 C221.603766,125.007006 249.698047,143.223217 263.894201,169.919814 L80.6774296,353.136585 Z" id="Combined-Shape" fill="url(#linearGradient-2)"></path>
            </g>
        </g>
    </g>
</svg>